# Blender v2.83.1 OBJ File: 'saturns_ring.blend'
# www.blender.org
mtllib saturns_ring.mtl
o Circle
v 0.000000 0.000000 -1.500000
v -0.292636 0.000000 -1.471178
v -0.574025 0.000000 -1.385819
v -0.833355 0.000000 -1.247204
v -1.060660 0.000000 -1.060660
v -1.247205 0.000000 -0.833355
v -1.385819 0.000000 -0.574025
v -1.471178 0.000000 -0.292636
v -1.500000 0.000000 -0.000000
v -1.471178 0.000000 0.292635
v -1.385819 0.000000 0.574025
v -1.247205 0.000000 0.833355
v -1.060660 0.000000 1.060660
v -0.833355 0.000000 1.247205
v -0.574025 0.000000 1.385819
v -0.292635 0.000000 1.471178
v 0.000000 0.000000 1.500000
v 0.292636 0.000000 1.471178
v 0.574026 0.000000 1.385819
v 0.833356 0.000000 1.247204
v 1.060661 0.000000 1.060660
v 1.247205 0.000000 0.833354
v 1.385820 0.000000 0.574024
v 1.471178 0.000000 0.292634
v 1.500000 0.000000 -0.000001
v 1.471178 0.000000 -0.292637
v 1.385819 0.000000 -0.574027
v 1.247203 0.000000 -0.833357
v 1.060659 0.000000 -1.060662
v 0.833354 0.000000 -1.247205
v 0.574023 0.000000 -1.385820
v 0.292633 0.000000 -1.471178
v 0.000000 0.000000 -2.100000
v -0.409690 0.000000 -2.059649
v -0.803635 0.000000 -1.940147
v -1.166698 0.000000 -1.746086
v -1.484924 0.000000 -1.484924
v -1.746086 0.000000 -1.166697
v -1.940147 0.000000 -0.803635
v -2.059649 0.000000 -0.409690
v -2.100000 0.000000 0.000000
v -2.059649 0.000000 0.409690
v -1.940147 0.000000 0.803635
v -1.746086 0.000000 1.166698
v -1.484924 0.000000 1.484924
v -1.166697 0.000000 1.746086
v -0.803635 0.000000 1.940147
v -0.409689 0.000000 2.059649
v 0.000001 0.000000 2.100000
v 0.409691 0.000000 2.059649
v 0.803636 0.000000 1.940147
v 1.166699 0.000000 1.746086
v 1.484925 0.000000 1.484924
v 1.746087 0.000000 1.166696
v 1.940148 0.000000 0.803634
v 2.059649 0.000000 0.409688
v 2.100000 0.000000 -0.000002
v 2.059649 0.000000 -0.409692
v 1.940146 0.000000 -0.803637
v 1.746085 0.000000 -1.166699
v 1.484922 0.000000 -1.484926
v 1.166695 0.000000 -1.746088
v 0.803632 0.000000 -1.940148
v 0.409687 0.000000 -2.059649
vt 1.000072 1.010070
vt 1.000072 -0.010070
vt -0.000074 -0.010070
vt -0.000074 1.010070
vt 1.000072 1.010070
vt 1.000072 -0.010070
vt -0.000074 -0.010070
vt -0.000074 1.010070
vt 1.000072 1.010070
vt 1.000072 -0.010070
vt -0.000074 -0.010070
vt -0.000074 1.010070
vt 1.000072 1.010070
vt 1.000072 -0.010070
vt -0.000074 -0.010070
vt -0.000074 1.010070
vt 1.000072 1.010070
vt 1.000072 -0.010070
vt -0.000074 -0.010070
vt -0.000074 1.010070
vt 1.000072 1.010070
vt 1.000072 -0.010070
vt -0.000074 -0.010070
vt -0.000074 1.010070
vt 1.000072 1.010070
vt 1.000072 -0.010070
vt -0.000074 -0.010070
vt -0.000074 1.010070
vt 1.000072 1.010070
vt 1.000072 -0.010070
vt -0.000074 -0.010070
vt -0.000074 1.010070
vt 1.000072 1.010070
vt 1.000072 -0.010070
vt -0.000074 -0.010070
vt -0.000074 1.010070
vt 1.000072 1.010070
vt 1.000072 -0.010070
vt -0.000074 -0.010070
vt -0.000074 1.010070
vt 1.000072 1.010070
vt 1.000072 -0.010070
vt -0.000074 -0.010070
vt -0.000074 1.010070
vt 1.000072 1.010070
vt 1.000072 -0.010070
vt -0.000074 -0.010070
vt -0.000074 1.010070
vt 1.000072 1.010070
vt 1.000072 -0.010070
vt -0.000074 -0.010070
vt -0.000074 1.010070
vt 1.000072 1.010070
vt 1.000072 -0.010070
vt -0.000074 -0.010070
vt -0.000074 1.010070
vt 1.000072 1.010070
vt 1.000072 -0.010070
vt -0.000074 -0.010070
vt -0.000074 1.010070
vt 1.000072 1.010070
vt 1.000072 -0.010070
vt -0.000074 -0.010070
vt -0.000074 1.010070
vt 1.000072 1.010070
vt 1.000072 -0.010070
vt -0.000074 -0.010070
vt -0.000074 1.010070
vt 1.000072 1.010070
vt 1.000072 -0.010070
vt -0.000074 -0.010070
vt -0.000074 1.010070
vt 1.000072 1.010070
vt 1.000072 -0.010070
vt -0.000074 -0.010070
vt -0.000074 1.010070
vt 1.000072 1.010070
vt 1.000072 -0.010070
vt -0.000074 -0.010070
vt -0.000074 1.010070
vt 1.000072 1.010070
vt 1.000072 -0.010070
vt -0.000074 -0.010070
vt -0.000074 1.010070
vt 1.000072 1.010070
vt 1.000072 -0.010070
vt -0.000074 -0.010070
vt -0.000074 1.010070
vt 1.000072 1.010070
vt 1.000072 -0.010070
vt -0.000074 -0.010070
vt -0.000074 1.010070
vt 1.000072 1.010070
vt 1.000072 -0.010070
vt -0.000074 -0.010070
vt -0.000074 1.010070
vt 1.000072 1.010070
vt 1.000072 -0.010070
vt -0.000074 -0.010070
vt -0.000074 1.010070
vt 1.000072 1.010070
vt 1.000072 -0.010070
vt -0.000074 -0.010070
vt -0.000074 1.010070
vt 1.000072 1.010070
vt 1.000072 -0.010070
vt -0.000074 -0.010070
vt -0.000074 1.010070
vt 1.000072 1.010070
vt 1.000072 -0.010070
vt -0.000074 -0.010070
vt -0.000074 1.010070
vt 1.000072 1.010070
vt 1.000072 -0.010070
vt -0.000074 -0.010070
vt -0.000074 1.010070
vt 1.000072 1.010070
vt 1.000072 -0.010070
vt -0.000074 -0.010070
vt -0.000074 1.010070
vt 1.000072 1.010070
vt 1.000072 -0.010070
vt -0.000074 -0.010070
vt -0.000074 1.010070
vt 1.000072 1.010070
vt 1.000072 -0.010070
vt -0.000074 -0.010070
vt -0.000074 1.010070
vn 0.0000 1.0000 0.0000
usemtl Material.003
s off
f 9/1/1 8/2/1 40/3/1 41/4/1
f 23/5/1 22/6/1 54/7/1 55/8/1
f 10/9/1 9/10/1 41/11/1 42/12/1
f 24/13/1 23/14/1 55/15/1 56/16/1
f 11/17/1 10/18/1 42/19/1 43/20/1
f 25/21/1 24/22/1 56/23/1 57/24/1
f 12/25/1 11/26/1 43/27/1 44/28/1
f 26/29/1 25/30/1 57/31/1 58/32/1
f 13/33/1 12/34/1 44/35/1 45/36/1
f 27/37/1 26/38/1 58/39/1 59/40/1
f 14/41/1 13/42/1 45/43/1 46/44/1
f 28/45/1 27/46/1 59/47/1 60/48/1
f 15/49/1 14/50/1 46/51/1 47/52/1
f 2/53/1 1/54/1 33/55/1 34/56/1
f 29/57/1 28/58/1 60/59/1 61/60/1
f 16/61/1 15/62/1 47/63/1 48/64/1
f 3/65/1 2/66/1 34/67/1 35/68/1
f 30/69/1 29/70/1 61/71/1 62/72/1
f 17/73/1 16/74/1 48/75/1 49/76/1
f 4/77/1 3/78/1 35/79/1 36/80/1
f 31/81/1 30/82/1 62/83/1 63/84/1
f 18/85/1 17/86/1 49/87/1 50/88/1
f 5/89/1 4/90/1 36/91/1 37/92/1
f 32/93/1 31/94/1 63/95/1 64/96/1
f 19/97/1 18/98/1 50/99/1 51/100/1
f 6/101/1 5/102/1 37/103/1 38/104/1
f 1/105/1 32/106/1 64/107/1 33/108/1
f 20/109/1 19/110/1 51/111/1 52/112/1
f 7/113/1 6/114/1 38/115/1 39/116/1
f 21/117/1 20/118/1 52/119/1 53/120/1
f 8/121/1 7/122/1 39/123/1 40/124/1
f 22/125/1 21/126/1 53/127/1 54/128/1
